<?xml version="1.0" encoding="UTF-8"?>
<!-- Generated by Pixelmator Pro 3.6.13 -->
<svg width="119" height="119" viewBox="0 0 119 119" xmlns="http://www.w3.org/2000/svg">
    <path id="Rounded-Rectangle" fill="#16161e" fill-rule="evenodd" stroke="none" d="M 0 98 C 0 109.597977 9.40202 119 21 119 L 98 119 C 109.597977 119 119 109.597977 119 98 L 119 21 C 119 9.402023 109.597977 0 98 0 L 21 0 C 9.40202 0 0 9.402023 0 21 Z"/>
    <g id="Icon">
        <g id="Group">
            <path id="Path" fill="#af9cff" stroke="none" d="M 21 14.599998 L 20.5 15.800003 C 19.767847 15.514023 18.985716 15.377998 18.200001 15.400002 C 16.700001 15.400002 15.9 15.900002 15.9 17.099998 L 15.9 19.099998 L 19.5 19.099998 L 19.299999 20.300003 L 15.799999 20.300003 L 15.799999 28.300003 L 14.1 28.300003 L 14.1 20.300003 L 11.6 20.300003 L 11.6 19.099998 L 14.2 19.099998 L 14.2 17.099998 C 14.2 15.300003 15.9 14.099998 18.1 14.099998 C 19.094011 14.003677 20.095636 14.176369 21 14.599998 Z"/>
            <path id="path1" fill="#af9cff" stroke="none" d="M 27.530001 27.199997 C 28.699636 27.171089 29.781809 26.574028 30.43 25.599998 L 30.43 18.300003 L 32.130001 18.300003 L 32.130001 28.300003 L 30.629999 28.300003 L 30.530001 27 C 29.677696 27.995102 28.44002 28.577538 27.129999 28.599998 C 25.030001 28.599998 24.030001 27.5 24.030001 25.699997 L 24.030001 18.400002 L 25.73 18.400002 L 25.73 25.5 C 25.73 26.599998 26.23 27.199997 27.530001 27.199997 Z"/>
            <path id="path2" fill="#af9cff" stroke="none" d="M 37.630001 18.300003 L 37.73 19.699997 C 38.636475 18.721069 39.896591 18.145012 41.23 18.099998 C 43.330002 18.099998 44.23 19.199997 44.23 21.099998 L 44.23 28.300003 L 42.630001 28.300003 L 42.630001 22.199997 C 42.630001 20.199997 42.43 19.300003 40.830002 19.300003 C 39.643387 19.357971 38.560238 19.99292 37.93 21 L 37.93 28.300003 L 36.23 28.300003 L 36.23 18.300003 Z"/>
            <path id="path3" fill="#af9cff" stroke="none" d="M 56 26.099998 L 56.799999 27.199997 C 55.74691 27.950829 54.492966 28.368805 53.200001 28.400002 C 50 28.400002 48.200001 26.400002 48.200001 23.199997 C 48.200001 20.199997 50 18 53.200001 18 C 54.503338 17.967148 55.777039 18.391716 56.799999 19.199997 L 55.900002 20.300003 C 55.080841 19.720367 54.103474 19.406212 53.099998 19.400002 C 51.200001 19.400002 49.900002 20.699997 49.900002 23.300003 C 49.900002 25.900002 51.200001 27.099998 53.099998 27.099998 C 54.152348 27.106682 55.175438 26.753891 56 26.099998 Z"/>
            <path id="path4" fill="#af9cff" stroke="none" d="M 66.230003 28.400002 C 63.93 28.400002 62.630001 27.199997 62.630001 25.400002 L 62.630001 19.400002 L 60.130001 19.400002 L 60.130001 18.199997 L 62.630001 18.199997 L 62.630001 15.900002 L 64.330002 15.699997 L 64.330002 18.199997 L 68 18.199997 L 67.800003 19.400002 L 64.300003 19.400002 L 64.300003 25.300003 C 64.300003 26.400002 64.900002 27 66.400002 27 C 67.129532 27.000374 67.848915 26.829094 68.5 26.5 L 69.199997 27.599998 C 68.308029 28.147881 67.276482 28.425735 66.230003 28.400002 Z"/>
            <path id="path5" fill="#af9cff" stroke="none" d="M 81.230003 27 L 81.230003 28.199997 L 73.230003 28.199997 L 73.230003 27 L 76.529999 27 L 76.529999 19.5 L 73.330002 19.5 L 73.330002 18.300003 L 78.230003 18.300003 L 78.230003 27 Z M 78.129997 14.699997 C 78.171173 15.192383 77.906334 15.65966 77.462753 15.877304 C 77.019173 16.094948 76.487534 16.018456 76.123306 15.684578 C 75.759079 15.3507 75.636726 14.827705 75.815048 14.366913 C 75.99337 13.906113 76.435905 13.601715 76.93 13.599998 C 77.236481 13.580887 77.537544 13.687325 77.763908 13.894821 C 77.990273 14.102325 78.122444 14.393013 78.129997 14.699997 Z"/>
            <path id="path6" fill="#af9cff" stroke="none" d="M 93.629997 23.199997 C 93.629997 26.199997 92.029999 28.400002 89.029999 28.400002 C 86.029999 28.400002 84.43 26.400002 84.43 23.199997 C 84.43 20 86 18 89 18 C 92 18 93.629997 20.099998 93.629997 23.199997 Z M 86.230003 23.199997 C 86.230003 25.900002 87.129997 27.099998 89.029999 27.099998 C 90.93 27.099998 91.830002 25.900002 91.830002 23.199997 C 91.830002 20.5 90.93 19.300003 89.029999 19.300003 C 87.129997 19.300003 86.230003 20.599998 86.230003 23.199997 Z"/>
            <path id="path7" fill="#af9cff" stroke="none" d="M 98.629997 18.300003 L 98.730003 19.699997 C 99.636475 18.721069 100.896591 18.145012 102.230003 18.099998 C 104.330002 18.099998 105.230003 19.199997 105.230003 21.099998 L 105.230003 28.300003 L 103.629997 28.300003 L 103.629997 22.199997 C 103.629997 20.199997 103.43 19.300003 101.830002 19.300003 C 100.643387 19.357971 99.560234 19.99292 98.93 21 L 98.93 28.300003 L 97.230003 28.300003 L 97.230003 18.300003 Z"/>
        </g>
        <g id="g1">
            <path id="path8" fill="#e394dc" stroke="none" d="M 21 32.300003 L 20.5 33.5 C 19.767847 33.21402 18.985716 33.077995 18.200001 33.099998 C 16.700001 33.099998 15.9 33.599998 15.9 34.800003 L 15.9 36.800003 L 19.5 36.800003 L 19.299999 38 L 15.799999 38 L 15.799999 46 L 14.1 46 L 14.1 38 L 11.6 38 L 11.6 36.800003 L 14.2 36.800003 L 14.2 34.800003 C 14.2 33 15.9 31.800003 18.1 31.800003 C 19.087862 31.802902 20.068203 31.971924 21 32.300003 Z"/>
            <path id="path9" fill="#e394dc" stroke="none" d="M 27.530001 44.900002 C 28.699636 44.871094 29.781809 44.274033 30.43 43.300003 L 30.43 36 L 32.130001 36 L 32.130001 46 L 30.629999 46 L 30.530001 44.699997 C 29.677696 45.695107 28.44002 46.277542 27.129999 46.300003 C 25.030001 46.300003 24.030001 45.199997 24.030001 43.400002 L 24.030001 36.099998 L 25.73 36.099998 L 25.73 43.099998 C 25.73 44.400002 26.23 44.900002 27.530001 44.900002 Z"/>
            <path id="path10" fill="#e394dc" stroke="none" d="M 37.630001 36 L 37.73 37.400002 C 38.636475 36.421066 39.896591 35.845016 41.23 35.800003 C 43.330002 35.800003 44.23 36.900002 44.23 38.800003 L 44.23 46 L 42.630001 46 L 42.630001 39.900002 C 42.630001 37.900002 42.43 37 40.830002 37 C 39.643387 37.057968 38.560238 37.692917 37.93 38.699997 L 37.93 46 L 36.23 46 L 36.23 36 Z"/>
            <path id="path11" fill="#e394dc" stroke="none" d="M 56 43.900002 L 56.799999 45 C 55.74691 45.750824 54.492966 46.168808 53.200001 46.199997 C 50 46.199997 48.200001 44.199997 48.200001 41 C 48.200001 38 50 35.800003 53.200001 35.800003 C 54.503338 35.767151 55.777039 36.191719 56.799999 37 L 55.900002 38.099998 C 55.080841 37.520363 54.103474 37.206215 53.099998 37.199997 C 51.200001 37.199997 49.900002 38.5 49.900002 41.099998 C 49.900002 43.699997 51.200001 44.900002 53.099998 44.900002 C 54.144108 44.859818 55.153042 44.511909 56 43.900002 Z"/>
            <path id="path12" fill="#e394dc" stroke="none" d="M 66.230003 46.199997 C 63.93 46.199997 62.630001 45 62.630001 43.199997 L 62.630001 37.199997 L 60.130001 37.199997 L 60.130001 36 L 62.630001 36 L 62.630001 33.699997 L 64.330002 33.5 L 64.330002 36 L 68 36 L 67.800003 37.199997 L 64.300003 37.199997 L 64.300003 43.099998 C 64.300003 44.199997 64.900002 44.800003 66.400002 44.800003 C 67.129532 44.800377 67.848915 44.629089 68.5 44.300003 L 69.199997 45.400002 C 68.289604 45.903763 67.270256 46.178337 66.230003 46.199997 Z"/>
            <path id="path13" fill="#e394dc" stroke="none" d="M 81.230003 44.699997 L 81.230003 45.900002 L 73.230003 45.900002 L 73.230003 44.699997 L 76.529999 44.699997 L 76.529999 37.199997 L 73.330002 37.199997 L 73.330002 36 L 78.230003 36 L 78.230003 44.699997 Z M 78.129997 32.400002 C 78.171173 32.89238 77.906334 33.359665 77.462753 33.577309 C 77.019173 33.794945 76.487534 33.718452 76.123306 33.384575 C 75.759079 33.050705 75.636726 32.52771 75.815048 32.06691 C 75.99337 31.60611 76.435905 31.30172 76.93 31.300003 C 77.236481 31.280884 77.537544 31.387321 77.763908 31.594826 C 77.990273 31.802322 78.122444 32.093018 78.129997 32.400002 Z"/>
            <path id="path14" fill="#e394dc" stroke="none" d="M 93.629997 41 C 93.629997 44 92.029999 46.199997 89.029999 46.199997 C 86.029999 46.199997 84.43 44.199997 84.43 41 C 84.43 37.800003 86 35.800003 89 35.800003 C 92 35.800003 93.629997 37.800003 93.629997 41 Z M 86.230003 41 C 86.230003 43.699997 87.129997 44.900002 89.029999 44.900002 C 90.93 44.900002 91.830002 43.699997 91.830002 41 C 91.830002 38.300003 90.93 37.099998 89 37.099998 C 87.07 37.099998 86.230003 38.300003 86.230003 41 Z"/>
            <path id="path15" fill="#e394dc" stroke="none" d="M 98.629997 36 L 98.730003 37.400002 C 99.636475 36.421066 100.896591 35.845016 102.230003 35.800003 C 104.330002 35.800003 105.230003 36.900002 105.230003 38.800003 L 105.230003 46 L 103.629997 46 L 103.629997 39.900002 C 103.629997 37.900002 103.43 37 101.830002 37 C 100.643387 37.057968 99.560234 37.692917 98.93 38.699997 L 98.93 46 L 97.230003 46 L 97.230003 36 Z"/>
        </g>
        <g id="g2">
            <path id="path16" fill="#87c3ff" stroke="none" d="M 21 48.5 L 20.5 49.699997 C 19.767847 49.414024 18.985716 49.278 18.200001 49.300003 C 16.700001 49.300003 15.9 49.800003 15.9 51 L 15.9 53 L 19.5 53 L 19.299999 54.099998 L 15.799999 54.099998 L 15.799999 62.099998 L 14.1 62.099998 L 14.1 54.099998 L 11.6 54.099998 L 11.6 52.900002 L 14.2 52.900002 L 14.2 50.900002 C 14.2 49.099998 15.9 47.900002 18.1 47.900002 C 19.098883 47.885826 20.088747 48.09063 21 48.5 Z"/>
            <path id="path17" fill="#87c3ff" stroke="none" d="M 27.530001 61 C 28.699636 60.971088 29.781809 60.374027 30.43 59.399998 L 30.43 52.099998 L 32.130001 52.099998 L 32.130001 62.099998 L 30.629999 62.099998 L 30.530001 60.799999 C 29.677696 61.795105 28.44002 62.377541 27.129999 62.399998 C 25.030001 62.399998 24.030001 61.299999 24.030001 59.5 L 24.030001 52.099998 L 25.73 52.099998 L 25.73 59.199997 C 25.73 60.5 26.23 61 27.530001 61 Z"/>
            <path id="path18" fill="#87c3ff" stroke="none" d="M 37.630001 52.099998 L 37.73 53.5 C 38.636475 52.521065 39.896591 51.945015 41.23 51.900002 C 43.330002 51.900002 44.23 53 44.23 54.900002 L 44.23 62.099998 L 42.630001 62.099998 L 42.630001 56 C 42.630001 54 42.43 53.099998 40.830002 53.099998 C 39.643387 53.157967 38.560238 53.792923 37.93 54.800003 L 37.93 62.099998 L 36.23 62.099998 L 36.23 52.099998 Z"/>
            <path id="path19" fill="#87c3ff" stroke="none" d="M 56 60 L 56.799999 61.099998 C 55.74691 61.850826 54.492966 62.268806 53.200001 62.299999 C 50 62.299999 48.200001 60.299999 48.200001 57.099998 C 48.200001 54.099998 50 51.900002 53.200001 51.900002 C 54.503338 51.867149 55.777039 52.291718 56.799999 53.099998 L 55.900002 54.199997 C 55.080841 53.620369 54.103474 53.306213 53.099998 53.300003 C 51.200001 53.300003 49.900002 54.599998 49.900002 57.199997 C 49.900002 59.799999 51.200001 61 53.099998 61 C 54.152348 61.006683 55.175438 60.653893 56 60 Z"/>
            <path id="path20" fill="#87c3ff" stroke="none" d="M 66.230003 62.299999 C 63.93 62.299999 62.630001 61.099998 62.630001 59.299999 L 62.630001 53.300003 L 60.130001 53.300003 L 60.130001 52.099998 L 62.630001 52.099998 L 62.630001 49.800003 L 64.330002 49.599998 L 64.330002 52.099998 L 68 52.099998 L 67.800003 53.300003 L 64.300003 53.300003 L 64.300003 59.199997 C 64.300003 60.299999 64.900002 60.899998 66.400002 60.899998 C 67.129532 60.900372 67.848915 60.729092 68.5 60.399998 L 69.199997 61.5 C 68.289604 62.003761 67.270256 62.278332 66.230003 62.299999 Z"/>
            <path id="path21" fill="#87c3ff" stroke="none" d="M 81.230003 60.799999 L 81.230003 62.099998 L 73.230003 62.099998 L 73.230003 60.899998 L 76.529999 60.899998 L 76.529999 53.400002 L 73.330002 53.400002 L 73.330002 52.099998 L 78.230003 52.099998 L 78.230003 60.799999 Z M 78.129997 48.599998 C 78.171173 49.092377 77.906334 49.559662 77.462753 49.777306 C 77.019173 49.994949 76.487534 49.918449 76.123306 49.584579 C 75.759079 49.250702 75.636726 48.727707 75.815048 48.266914 C 75.99337 47.806114 76.435905 47.501717 76.93 47.5 C 77.240105 47.465233 77.550087 47.566292 77.780113 47.777153 C 78.010139 47.988007 78.137718 48.288048 78.129997 48.599998 Z"/>
            <path id="path22" fill="#87c3ff" stroke="none" d="M 93.629997 57.099998 C 93.629997 60.099998 92.029999 62.299999 89.029999 62.299999 C 86.029999 62.299999 84.43 60.299999 84.43 57.099998 C 84.43 53.900002 86 51.900002 89 51.900002 C 92 51.900002 93.629997 53.900002 93.629997 57.099998 Z M 86.230003 57.099998 C 86.230003 59.799999 87.129997 61 89.029999 61 C 90.93 61 91.830002 59.799999 91.830002 57.099998 C 91.830002 54.400002 90.93 53.199997 89.029999 53.199997 C 87.129997 53.199997 86.230003 54.400002 86.230003 57.099998 Z"/>
            <path id="path23" fill="#87c3ff" stroke="none" d="M 98.629997 52.099998 L 98.730003 53.5 C 99.636475 52.521065 100.896591 51.945015 102.230003 51.900002 C 104.330002 51.900002 105.230003 53 105.230003 54.900002 L 105.230003 62.099998 L 103.629997 62.099998 L 103.629997 56 C 103.629997 54 103.43 53.099998 101.830002 53.099998 C 100.643387 53.157967 99.560234 53.792923 98.93 54.800003 L 98.93 62.099998 L 97.230003 62.099998 L 97.230003 52.099998 Z"/>
        </g>
        <g id="g3">
            <path id="path24" fill="#81d2ce" stroke="none" d="M 21 64.599998 L 20.5 65.800003 C 19.767847 65.514023 18.985716 65.377991 18.200001 65.399994 C 16.700001 65.399994 15.9 65.899994 15.9 67.099998 L 15.9 69.099998 L 19.5 69.099998 L 19.299999 70.299995 L 15.799999 70.299995 L 15.799999 78.299995 L 14.1 78.299995 L 14.1 70.299995 L 11.6 70.299995 L 11.6 69.099998 L 14.2 69.099998 L 14.2 67.099998 C 14.2 65.300003 15.9 64.099998 18.1 64.099998 C 19.094011 64.003677 20.095636 64.176369 21 64.599998 Z"/>
            <path id="path25" fill="#81d2ce" stroke="none" d="M 27.530001 77.199997 C 28.699636 77.171089 29.781809 76.574028 30.43 75.599998 L 30.43 68.299995 L 32.130001 68.299995 L 32.130001 78.299995 L 30.629999 78.299995 L 30.530001 77 C 29.677696 77.995102 28.44002 78.577538 27.129999 78.599998 C 25.030001 78.599998 24.030001 77.5 24.030001 75.699997 L 24.030001 68.400002 L 25.73 68.400002 L 25.73 75.5 C 25.73 76.599998 26.23 77.199997 27.530001 77.199997 Z"/>
            <path id="path26" fill="#81d2ce" stroke="none" d="M 37.630001 68.299995 L 37.73 69.699997 C 38.636475 68.721069 39.896591 68.145012 41.23 68.099998 C 43.330002 68.099998 44.23 69.199997 44.23 71.099998 L 44.23 78.299995 L 42.630001 78.299995 L 42.630001 72.199997 C 42.630001 70.199997 42.43 69.299995 40.830002 69.299995 C 39.643387 69.357964 38.560238 69.99292 37.93 71 L 37.93 78.299995 L 36.23 78.299995 L 36.23 68.299995 Z"/>
            <path id="path27" fill="#81d2ce" stroke="none" d="M 56 76.099998 L 56.799999 77.199997 C 55.74691 77.950829 54.492966 78.368805 53.200001 78.400002 C 50 78.400002 48.200001 76.400002 48.200001 73.199997 C 48.200001 70.199997 50 68 53.200001 68 C 54.503338 67.967148 55.777039 68.391716 56.799999 69.199997 L 55.900002 70.299995 C 55.080841 69.720367 54.103474 69.406212 53.099998 69.400002 C 51.200001 69.400002 49.900002 70.699997 49.900002 73.299995 C 49.900002 75.900002 51.200001 77.099998 53.099998 77.099998 C 54.152348 77.106682 55.175438 76.753891 56 76.099998 Z"/>
            <path id="path28" fill="#81d2ce" stroke="none" d="M 66.230003 78.400002 C 63.93 78.400002 62.630001 77.199997 62.630001 75.400002 L 62.630001 69.400002 L 60.130001 69.400002 L 60.130001 68.199997 L 62.630001 68.199997 L 62.630001 65.899994 L 64.330002 65.699997 L 64.330002 68.199997 L 68 68.199997 L 67.800003 69.400002 L 64.300003 69.400002 L 64.300003 75.299995 C 64.300003 76.400002 64.900002 77 66.400002 77 C 67.129532 77.000374 67.848915 76.829094 68.5 76.5 L 69.199997 77.599998 C 68.308029 78.147881 67.276482 78.425735 66.230003 78.400002 Z"/>
            <path id="path29" fill="#81d2ce" stroke="none" d="M 81.230003 77 L 81.230003 78.199997 L 73.230003 78.199997 L 73.230003 77 L 76.529999 77 L 76.529999 69.5 L 73.330002 69.5 L 73.330002 68.299995 L 78.230003 68.299995 L 78.230003 77 Z M 78.129997 64.699997 C 78.171173 65.192383 77.906334 65.659668 77.462753 65.877304 C 77.019173 66.094948 76.487534 66.018448 76.123306 65.684578 C 75.759079 65.3507 75.636726 64.827705 75.815048 64.366913 C 75.99337 63.906113 76.435905 63.601715 76.93 63.599998 C 77.236481 63.580883 77.537544 63.687321 77.763908 63.894821 C 77.990273 64.102325 78.122444 64.393013 78.129997 64.699997 Z"/>
            <path id="path30" fill="#81d2ce" stroke="none" d="M 93.629997 73.199997 C 93.629997 76.199997 92.029999 78.400002 89.029999 78.400002 C 86.029999 78.400002 84.43 76.400002 84.43 73.199997 C 84.43 70 86 68 89 68 C 92 68 93.629997 70.099998 93.629997 73.199997 Z M 86.230003 73.199997 C 86.230003 75.900002 87.129997 77.099998 89.029999 77.099998 C 90.93 77.099998 91.830002 75.900002 91.830002 73.199997 C 91.830002 70.5 90.93 69.299995 89.029999 69.299995 C 87.129997 69.299995 86.230003 70.599998 86.230003 73.199997 Z"/>
            <path id="path31" fill="#81d2ce" stroke="none" d="M 98.629997 68.299995 L 98.730003 69.699997 C 99.636475 68.721069 100.896591 68.145012 102.230003 68.099998 C 104.330002 68.099998 105.230003 69.199997 105.230003 71.099998 L 105.230003 78.299995 L 103.629997 78.299995 L 103.629997 72.199997 C 103.629997 70.199997 103.43 69.299995 101.830002 69.299995 C 100.643387 69.357964 99.560234 69.99292 98.93 71 L 98.93 78.299995 L 97.230003 78.299995 L 97.230003 68.299995 Z"/>
        </g>
        <g id="g4">
            <path id="path32" fill="#e2c088" stroke="none" d="M 21 80.699997 L 20.5 81.900002 C 19.767847 81.614021 18.985716 81.477997 18.200001 81.5 C 16.700001 81.5 15.9 82 15.9 83.199997 L 15.9 85.199997 L 19.5 85.199997 L 19.299999 86.400002 L 15.799999 86.400002 L 15.799999 94.400002 L 14.1 94.400002 L 14.1 86.400002 L 11.6 86.400002 L 11.6 85.099998 L 14.2 85.099998 L 14.2 83.099998 C 14.2 81.299995 15.9 80.099998 18.1 80.099998 C 19.087177 80.183342 20.060797 80.384781 21 80.699997 Z"/>
            <path id="path33" fill="#e2c088" stroke="none" d="M 27.530001 93.299995 C 28.699636 93.271088 29.781809 92.674026 30.43 91.699997 L 30.43 84.400002 L 32.130001 84.400002 L 32.130001 94.400002 L 30.629999 94.400002 L 30.530001 93.099998 C 29.677696 94.0951 28.44002 94.677536 27.129999 94.699997 C 25.030001 94.699997 24.030001 93.599998 24.030001 91.799995 L 24.030001 84.5 L 25.73 84.5 L 25.73 91.599998 C 25.73 92.799995 26.23 93.299995 27.530001 93.299995 Z"/>
            <path id="path34" fill="#e2c088" stroke="none" d="M 37.630001 84.400002 L 37.73 85.799995 C 38.636475 84.821068 39.896591 84.24501 41.23 84.199997 C 43.330002 84.199997 44.23 85.299995 44.23 87.199997 L 44.23 94.400002 L 42.630001 94.400002 L 42.630001 88.299995 C 42.630001 86.299995 42.43 85.400002 40.830002 85.400002 C 39.643387 85.45797 38.560238 86.092918 37.93 87.099998 L 37.93 94.400002 L 36.23 94.400002 L 36.23 84.400002 Z"/>
            <path id="path35" fill="#e2c088" stroke="none" d="M 56 92.299995 L 56.799999 93.400002 C 55.74691 94.150826 54.492966 94.56881 53.200001 94.599998 C 50 94.599998 48.200001 92.599998 48.200001 89.400002 C 48.200001 86.400002 50 84.199997 53.200001 84.199997 C 54.503338 84.167152 55.777039 84.591713 56.799999 85.400002 L 55.900002 86.5 C 55.080841 85.920364 54.103474 85.606209 53.099998 85.599998 C 51.200001 85.599998 49.900002 86.900002 49.900002 89.5 C 49.900002 92.099998 51.200001 93.299995 53.099998 93.299995 C 54.134815 93.213165 55.131603 92.869446 56 92.299995 Z"/>
            <path id="path36" fill="#e2c088" stroke="none" d="M 66.230003 94.599998 C 63.93 94.599998 62.630001 93.400002 62.630001 91.599998 L 62.630001 85.599998 L 60.130001 85.599998 L 60.130001 84.400002 L 62.630001 84.400002 L 62.630001 82.099998 L 64.330002 81.900002 L 64.330002 84.400002 L 68 84.400002 L 67.800003 85.599998 L 64.300003 85.599998 L 64.300003 91.5 C 64.300003 92.599998 64.900002 93.199997 66.400002 93.199997 C 67.129532 93.200371 67.848915 93.029091 68.5 92.699997 L 69.199997 93.799995 C 68.289604 94.303757 67.270256 94.578331 66.230003 94.599998 Z"/>
            <path id="path37" fill="#e2c088" stroke="none" d="M 81.230003 93.099998 L 81.230003 94.299995 L 73.230003 94.299995 L 73.230003 93.099998 L 76.529999 93.099998 L 76.529999 85.599998 L 73.330002 85.599998 L 73.330002 84.400002 L 78.230003 84.400002 L 78.230003 93.099998 Z M 78.129997 80.799995 C 78.171173 81.292381 77.906334 81.759659 77.462753 81.977303 C 77.019173 82.194946 76.487534 82.118454 76.123306 81.784576 C 75.759079 81.450699 75.636726 80.927704 75.815048 80.466911 C 75.99337 80.006111 76.435905 79.701714 76.93 79.699997 C 77.236481 79.680885 77.537544 79.787323 77.763908 79.99482 C 77.990273 80.202324 78.122444 80.493011 78.129997 80.799995 Z"/>
            <path id="path38" fill="#e2c088" stroke="none" d="M 93.629997 89.299995 C 93.629997 92.299995 92.029999 94.5 89.029999 94.5 C 86.029999 94.5 84.43 92.5 84.43 89.299995 C 84.43 86.099998 86 84.099998 89 84.099998 C 92 84.099998 93.629997 86.199997 93.629997 89.299995 Z M 86.230003 89.400002 C 86.230003 92.099998 87.129997 93.299995 89.029999 93.299995 C 90.93 93.299995 91.830002 92.099998 91.830002 89.400002 C 91.830002 86.699997 90.93 85.5 89.029999 85.5 C 87.129997 85.5 86.230003 86.699997 86.230003 89.400002 Z"/>
            <path id="path39" fill="#e2c088" stroke="none" d="M 98.629997 84.400002 L 98.730003 85.799995 C 99.636475 84.821068 100.896591 84.24501 102.230003 84.199997 C 104.330002 84.199997 105.230003 85.299995 105.230003 87.199997 L 105.230003 94.400002 L 103.629997 94.400002 L 103.629997 88.299995 C 103.629997 86.299995 103.43 85.400002 101.830002 85.400002 C 100.643387 85.45797 99.560234 86.092918 98.93 87.099998 L 98.93 94.400002 L 97.230003 94.400002 L 97.230003 84.400002 Z"/>
        </g>
        <path id="path40" fill="#16161e" stroke="none" d="M 9.9 96.299995 L 110.989998 96.299995 L 110.989998 115.119995 L 9.9 115.119995 Z"/>
        <path id="path41" fill="#16161e" stroke="none" d="M 66.129997 25.339996 L 69.239998 25.339996 L 69.239998 31.300003 L 66.129997 31.300003 Z"/>
        <path id="path42" fill="#16161e" stroke="none" d="M 92.440002 90.699997 L 91.93 90.699997 L 91.870003 90.639999 C 88.333344 87.780792 85.347824 84.300507 83.059998 80.369995 C 82.849663 80.023514 82.61927 79.689613 82.370003 79.369995 C 82.223564 79.028648 82.06002 78.694893 81.879997 78.369995 L 81.760002 78.099998 C 82.323555 76.71209 82.612228 75.227959 82.610001 73.729996 L 82.610001 71.299995 C 82.604446 66.92926 80.163185 62.926052 76.279999 60.919998 C 76.512093 59.997952 76.629646 59.050808 76.629997 58.099998 L 76.629997 55.75 C 76.629517 53.193489 75.78595 50.708488 74.230003 48.68 L 74.230003 45.43 C 74.193901 42.307716 72.903793 39.3311 70.650002 37.169998 L 70.650002 35.419998 C 70.650002 28.958267 65.411728 23.720001 58.950001 23.720001 C 52.48827 23.720001 47.25 28.958267 47.25 35.419998 L 47.25 37.190002 C 45.007908 39.353333 43.725761 42.3246 43.689999 45.440002 L 43.689999 48.650002 C 42.121975 50.684792 41.271107 53.181137 41.27 55.75 L 41.27 58.099998 C 41.273613 59.037422 41.391144 59.970932 41.619999 60.879997 C 37.72403 62.892651 35.280582 66.914879 35.290001 71.299995 L 35.290001 73.689995 C 35.291111 75.198318 35.583111 76.692268 36.150002 78.089996 C 36.049999 78.299995 35.939999 78.510002 35.84 78.729996 L 35.630001 79.199997 C 35.341614 79.572487 35.077728 79.96331 34.84 80.369995 C 32.543251 84.30304 29.547422 87.783485 26 90.639999 L 26 90.699997 L 25.49 90.699997 C 19.036077 90.705513 13.805513 95.936073 13.8 102.389999 L 13.8 104.779999 C 13.805504 111.23555 19.03446 116.468979 25.49 116.479996 L 92.489998 116.479996 C 98.945541 116.468979 104.1745 111.23555 104.18 104.779999 L 104.18 102.389999 C 104.177361 99.281754 102.938026 96.302307 100.735481 94.109146 C 98.532936 91.915977 95.548225 90.689369 92.440002 90.699997 Z"/>
        <path id="path43" fill="#af9cff" stroke="none" d="M 25.469999 101.199997 L 92.440002 101.199997 C 93.102745 101.199997 93.639999 101.737259 93.639999 102.400002 L 93.639999 104.779999 C 93.639999 105.442741 93.102745 105.979996 92.440002 105.979996 L 25.469999 105.979996 C 24.807259 105.979996 24.27 105.442741 24.27 104.779999 L 24.27 102.400002 C 24.27 101.737259 24.807259 101.199997 25.469999 101.199997 Z"/>
        <path id="path44" fill="#af9cff" stroke="none" d="M 56.560001 89.239998 L 56.560001 98.799995 L 61.34 98.799995 L 61.34 89.239998 C 69.709999 89.239998 76.889999 98.799995 76.889999 98.799995 L 85.260002 98.799995 C 80.738968 95.137108 76.923302 90.680977 74 85.650002 L 61.34 85.650002 L 61.34 83.260002 L 72.629997 83.260002 C 72.199997 82.449997 71.790001 81.669998 71.440002 80.860001 L 61.34 80.860001 L 61.34 78.470001 L 70.190002 78.470001 C 69.610001 77.279999 69 76.099998 68.519997 74.879997 L 70.910004 74.879997 C 71.227333 74.882668 71.532593 74.758469 71.757927 74.535011 C 71.983261 74.311554 72.110008 74.007347 72.110001 73.689995 L 72.110001 71.299995 C 72.110001 70.63726 71.572739 70.099998 70.910004 70.099998 L 66.129997 70.099998 C 65.239998 67.330002 64.440002 64.5 63.730003 61.73 L 54.169998 61.73 C 53.470001 64.5 52.669998 67.330002 51.77 70.099998 L 47 70.099998 C 46.337257 70.099998 45.799999 70.63726 45.799999 71.299995 L 45.799999 73.689995 C 45.799988 74.007347 45.926735 74.311554 46.152073 74.535011 C 46.377407 74.758469 46.682663 74.882668 47 74.879997 L 49.389999 74.879997 C 48.869999 76.080002 48.299999 77.279999 47.720001 78.470001 L 56.57 78.470001 L 56.57 80.860001 L 46.509998 80.860001 C 46.110001 81.669998 45.700001 82.449997 45.32 83.260002 L 56.560001 83.260002 L 56.560001 85.650002 L 43.919998 85.650002 C 40.990742 90.682663 37.168201 95.138901 32.639999 98.799995 L 41 98.799995 C 41 98.799995 48.189999 89.239998 56.560001 89.239998 Z"/>
        <path id="path45" fill="#af9cff" stroke="none" d="M 52.970001 54.550003 L 64.919998 54.550003 C 65.582741 54.550003 66.120003 55.087257 66.120003 55.75 L 66.120003 58.129997 C 66.120003 58.79274 65.582741 59.329998 64.919998 59.329998 L 52.970001 59.329998 C 52.307259 59.329998 51.77 58.79274 51.77 58.129997 L 51.77 55.75 C 51.77 55.087257 52.307259 54.550003 52.970001 54.550003 Z"/>
        <path id="path46" fill="#af9cff" stroke="none" d="M 60.150002 39.220001 L 60.150002 35.419998 C 60.150002 34.757256 59.612743 34.220001 58.950001 34.220001 C 58.287258 34.220001 57.75 34.757256 57.75 35.419998 L 57.75 39.220001 C 58.523735 38.930084 59.376266 38.930084 60.150002 39.220001 Z"/>
        <path id="path47" fill="#af9cff" stroke="none" d="M 55.360001 49.769997 L 56.759998 49.769997 C 56.619999 50.550003 56.459999 51.349998 56.290001 52.160004 L 61.610001 52.160004 C 61.439999 51.349998 61.279999 50.550003 61.139999 49.769997 L 62.540001 49.769997 C 62.857349 49.770012 63.161552 49.643265 63.38501 49.417931 C 63.608467 49.192596 63.732666 48.887337 63.730003 48.57 L 63.730003 45.57 C 63.731575 45.20488 63.56115 44.860329 63.269997 44.639999 L 59.68 41.639999 C 59.253334 41.32 58.666668 41.32 58.240002 41.639999 L 54.66 44.639999 C 54.366318 44.859276 54.192352 45.203499 54.189999 45.57 L 54.189999 48.57 C 54.189796 49.221199 54.709003 49.753723 55.360001 49.769997 Z"/>
    </g>
</svg>
